<?xml version="1.0" encoding="UTF-8"?>
<svg width="24px" height="22px" viewBox="0 0 24 22" version="1.1" xmlns="http://www.w3.org/2000/svg" xmlns:xlink="http://www.w3.org/1999/xlink">
    <!-- Generator: Sketch 39.1 (31720) - http://www.bohemiancoding.com/sketch -->
    <title>Page 1</title>
    <desc>Created with Sketch.</desc>
    <defs>
        <polygon id="path-1" points="23.2435389 21.7178731 23.2435389 0.078974359 0 0.078974359 0 10.8984237 0 21.7178731"></polygon>
    </defs>
    <g id="Page-1" stroke="none" stroke-width="1" fill="none" fill-rule="evenodd">
        <g id="Mentions-légales" transform="translate(-304.000000, -1583.000000)">
            <g id="®" transform="translate(60.000000, 1545.000000)">
                <g id="Page-1" transform="translate(244.000000, 38.000000)">
                    <g id="Group-3" transform="translate(0.000000, 0.203077)">
                        <mask id="mask-2" fill="white">
                            <use xlink:href="#path-1"></use>
                        </mask>
                        <g id="Clip-2"></g>
                        <path d="M12.8309089,0.0987179487 C7.32512466,0.106051282 2.77514541,4.56358974 2.4424319,10.2751282 L0,10.2751282 L3.37326984,13.7923077 L6.75739493,10.2751282 L4.35838404,10.2751282 C4.7033097,5.40635897 8.78027131,1.75012821 13.4648557,2.10833333 C18.1494401,2.46682051 21.6676276,6.70435897 21.3227019,11.5731282 C20.9777762,16.4418974 16.9005432,20.0981282 12.2162302,19.739641 C10.2332469,19.5878974 8.36424374,18.7191795 6.93379279,17.2841026 L5.61487957,18.694359 C9.75751545,22.8376923 16.3477395,22.7062564 20.3343311,18.4007436 C24.3211941,14.0952308 24.1947304,7.24589744 20.0518232,3.1025641 C18.1144319,1.16458974 15.5306103,0.0812307692 12.8417642,0.078974359 L12.8309089,0.0987179487 Z" id="Fill-1" fill="#FFFFFF" mask="url(#mask-2)"></path>
                    </g>
                    <polygon id="Fill-4" fill="#FFFFFF" points="11.6748245 4.39153846 11.6748245 11.5302564 14.9965319 14.9628205 16.3371556 13.5638462 13.5744938 10.7094872 13.5744938 4.39153846"></polygon>
                </g>
            </g>
        </g>
    </g>
</svg>