<?xml version="1.0" encoding="UTF-8"?>
<svg width="30px" height="17px" viewBox="0 0 30 17" version="1.1" xmlns="http://www.w3.org/2000/svg" xmlns:xlink="http://www.w3.org/1999/xlink">
    <!-- Generator: Sketch 39.1 (31720) - http://www.bohemiancoding.com/sketch -->
    <title>Page 1</title>
    <desc>Created with Sketch.</desc>
    <defs>
        <polygon id="path-1" points="10.8117998 0.00615561974 0.193889169 0.00615561974 0.193889169 10.9662058 10.8117998 10.9662058 10.8117998 0.00615561974"></polygon>
        <polygon id="path-3" points="22.6613576 0.00615561974 0.220754858 0.00615561974 0.220754858 16.0046113 22.6613576 16.0046113 22.6613576 0.00615561974"></polygon>
    </defs>
    <g id="Page-1" stroke="none" stroke-width="1" fill="none" fill-rule="evenodd">
        <g id="Mentions-légales" transform="translate(-1184.000000, -1585.000000)">
            <g id="®" transform="translate(60.000000, 1545.000000)">
                <g id="Page-1" transform="translate(1124.000000, 40.000000)">
                    <path d="M7.53783841,16.3063906 L7.53783841,16.3063906 C7.37950677,16.3063906 7.22773501,16.2414488 7.11591888,16.1260309 L0.174671704,8.95781173 C-0.0582040229,8.717127 -0.0582040229,8.32747627 0.174671704,8.08709932 C0.407845607,7.84703015 0.785336862,7.84672237 1.01821259,8.08709932 L7.53783841,14.8201162 L9.02752743,13.2827502 C9.26010499,13.0423732 9.63819259,13.0423732 9.87077014,13.2827502 C10.1036459,13.5231271 10.1036459,13.9127778 9.87077014,14.1531548 L7.95945976,16.1260309 C7.84764363,16.2414488 7.69587187,16.3063906 7.53783841,16.3063906" id="Fill-1" fill="#FFFFFF"></path>
                    <g id="Group-5" transform="translate(11.628878, 0.301779)">
                        <mask id="mask-2" fill="white">
                            <use xlink:href="#path-1"></use>
                        </mask>
                        <g id="Clip-4"></g>
                        <path d="M0.790167319,10.9662058 C0.637501029,10.9662058 0.485132916,10.9061885 0.368545964,10.7858461 C0.135670238,10.5454692 0.135670238,10.1558184 0.368545964,9.91544149 L9.79390028,0.1864845 C10.026776,-0.0542002318 10.4042673,-0.0542002318 10.637143,0.1864845 C10.8700187,0.42655367 10.8700187,0.81651218 10.637143,1.05688913 L1.21178867,10.7858461 C1.0954999,10.9061885 0.942833608,10.9662058 0.790167319,10.9662058" id="Fill-3" fill="#FFFFFF" mask="url(#mask-2)"></path>
                    </g>
                    <g id="Group-8" transform="translate(6.559880, 0.301779)">
                        <mask id="mask-4" fill="white">
                            <use xlink:href="#path-3"></use>
                        </mask>
                        <g id="Clip-7"></g>
                        <path d="M7.75857836,16.0046113 L7.75857836,16.0046113 C7.60024672,16.0046113 7.44847496,15.9396695 7.33665883,15.8242517 L0.395411653,8.65603247 C0.162535927,8.41534774 0.162535927,8.02569701 0.395411653,7.78532006 C0.628585556,7.54525089 1.00607681,7.54494311 1.23895254,7.78532006 L7.75857836,14.5183369 L21.6434581,0.186207497 C21.8763338,-0.0541694537 22.2538251,-0.0541694537 22.4867008,0.186207497 C22.7195765,0.426584448 22.7195765,0.816542958 22.4867008,1.05691991 L8.18019971,15.8242517 C8.06838358,15.9396695 7.91661182,16.0046113 7.75857836,16.0046113" id="Fill-6" fill="#FFFFFF" mask="url(#mask-4)"></path>
                    </g>
                </g>
            </g>
        </g>
    </g>
</svg>