<?xml version="1.0" encoding="UTF-8"?>
<svg width="26px" height="26px" viewBox="0 0 26 26" version="1.1" xmlns="http://www.w3.org/2000/svg" xmlns:xlink="http://www.w3.org/1999/xlink">
    <!-- Generator: Sketch 39.1 (31720) - http://www.bohemiancoding.com/sketch -->
    <title>Shape</title>
    <desc>Created with Sketch.</desc>
    <defs></defs>
    <g id="Page-1" stroke="none" stroke-width="1" fill="none" fill-rule="evenodd">
        <g id="Mentions-légales" transform="translate(-523.000000, -1583.000000)" fill="#FFFFFF">
            <g id="®" transform="translate(60.000000, 1545.000000)">
                <path d="M482.258112,38.0155662 C480.271626,37.882394 478.24075,38.5815481 476.720367,40.1019308 C474.711686,42.1106118 474.190095,44.9960097 475.055714,47.515184 L464.757063,57.8138349 C463.547416,59.0345802 463.547416,61.0210657 464.757063,62.241811 C465.977809,63.4514587 467.964294,63.4514587 469.185039,62.241811 L479.48369,51.94316 C482.002865,52.8087792 484.888263,52.2871882 486.896943,50.2785073 C488.92782,48.2476312 489.482704,45.3178426 488.583791,42.7764727 C488.439522,42.3880539 487.851344,42.2548817 487.551707,42.5434215 L483.833983,46.2611457 L481.425785,45.5730891 L480.737729,43.1648918 L484.455453,39.4471675 C484.743993,39.14753 484.61082,38.5593527 484.222401,38.4150828 C483.589833,38.1931292 482.923972,38.0599569 482.258112,38.0155662 Z M482.180428,39.2585068 C482.380186,39.2696045 482.568847,39.3361906 482.757507,39.3694837 L479.594667,42.5212259 C479.439299,42.6765935 479.372714,42.9318403 479.428202,43.1426962 L480.327114,46.250048 C480.382603,46.4498062 480.549068,46.6162715 480.748826,46.6717598 L483.856178,47.5706723 C484.067034,47.6261609 484.322281,47.5595755 484.477648,47.404207 L487.629391,44.2413672 C487.929028,46.0613871 487.429632,47.9812867 486.020226,49.3906925 C484.255695,51.1552245 481.681032,51.5769363 479.516983,50.6780238 C479.29503,50.5892425 479.017588,50.6447308 478.851122,50.811196 L468.308322,61.3539962 C467.564777,62.0975411 466.388423,62.0975411 465.644878,61.3539962 C464.901333,60.6104513 464.901333,59.4340967 465.644878,58.6905521 L476.187678,48.1477519 C476.354143,47.9812867 476.409632,47.7038445 476.32085,47.481891 C475.421938,45.3178426 475.84365,42.7431797 477.608182,40.9786479 C478.86222,39.7135119 480.537971,39.14753 482.180428,39.2585068 Z" id="Shape"></path>
            </g>
        </g>
    </g>
</svg>