<?xml version="1.0" encoding="UTF-8"?>
<svg width="28px" height="28px" viewBox="0 0 28 28" version="1.1" xmlns="http://www.w3.org/2000/svg" xmlns:xlink="http://www.w3.org/1999/xlink">
    <!-- Generator: Sketch 39.1 (31720) - http://www.bohemiancoding.com/sketch -->
    <title>Page 1</title>
    <desc>Created with Sketch.</desc>
    <defs></defs>
    <g id="Page-1" stroke="none" stroke-width="1" fill="none" fill-rule="evenodd">
        <g id="Mentions-légales" transform="translate(-964.000000, -1581.000000)" fill="#FFFFFF">
            <g id="®" transform="translate(60.000000, 1545.000000)">
                <path d="M929.109017,57.8041298 L930.168325,56.7448211 L930.168325,57.8041298 L929.109017,57.8041298 Z M926.71241,55.3572801 L930.168325,51.9010635 L930.168325,55.4598715 L927.824368,57.803829 L926.71241,57.803829 L926.71241,55.3572801 L926.71241,55.3572801 Z M925.803829,62.2017202 L904.908581,62.2017202 L904.908581,41.306171 L908.364496,41.306171 L908.364496,43.5475371 L908.364496,43.547838 L908.364496,58.2584202 C908.364496,58.5093328 908.567874,58.7127105 908.818787,58.7127105 L925.803829,58.7127105 L925.803829,62.2017202 Z M909.273077,39.3761893 L911.563783,37.0854831 C911.615229,37.034037 911.649828,36.9732643 911.671489,36.9085806 L914.81572,36.9085806 L911.326409,40.3975904 L909.273077,40.3975904 L909.273077,39.3761893 Z M910.455736,36.9085806 L909.273077,38.0912397 L909.273077,36.9085806 L910.455736,36.9085806 Z M926.71241,50.452449 L930.168325,47.0476785 L930.168325,50.6167156 L926.71241,54.0726313 L926.71241,50.452449 Z M925.803829,46.5786463 L925.803829,50.0721689 L917.955738,57.8041298 L914.578646,57.8041298 L925.803829,46.5786463 Z M925.803829,41.7878391 L925.803829,45.2939976 L913.356876,57.7409504 C913.337321,57.7605059 913.320774,57.7818666 913.30543,57.803829 L909.975572,57.803829 L925.803829,41.7878391 Z M909.273077,42.4509224 L909.273077,41.306171 L910.417828,41.306171 L909.273077,42.4509224 Z M915.261285,41.306171 L909.273077,47.2943792 L909.273077,43.735872 L911.702778,41.306171 L915.261285,41.306171 Z M921.013323,40.3975904 L917.454515,40.3975904 L920.855374,36.9970318 C920.882451,36.9699549 920.903812,36.9398695 920.922465,36.9085806 L924.502332,36.9085806 L921.013323,40.3975904 Z M925.900403,40.3975904 L922.297971,40.3975904 L925.701238,36.994625 C925.727412,36.9684507 925.748773,36.9389669 925.767125,36.9085806 L929.348196,36.9085806 L925.900403,40.3975904 Z M909.273077,53.4227856 L921.389692,41.306171 L925.002653,41.306171 L909.273077,57.2225781 L909.273077,53.4227856 Z M909.273077,48.5751169 C909.280298,48.5687989 909.288421,48.5639852 909.29534,48.5570656 L916.546235,41.306171 L920.104742,41.306171 L909.273077,52.137836 L909.273077,48.5751169 Z M930.168325,40.9295012 L926.71241,44.3854169 L926.71241,40.8684277 L930.168325,37.3712949 L930.168325,40.9295012 Z M930.168325,45.7723562 L926.71241,49.1771267 L926.71241,45.6703666 L930.168325,42.2141499 L930.168325,45.7723562 Z M916.080211,36.9085806 L919.658876,36.9085806 L916.169866,40.3975904 L912.611058,40.3975904 L916.014023,36.994625 C916.040498,36.9684507 916.061558,36.9389669 916.080211,36.9085806 L916.080211,36.9085806 Z M925.803829,56.2655599 L925.803829,57.803829 L924.26556,57.803829 L925.803829,56.2655599 Z M923.052514,57.7325265 C923.030251,57.7547897 923.010696,57.7788581 922.994149,57.8041298 L919.250014,57.8041298 L925.803829,51.3474912 L925.803829,54.981212 L923.052514,57.7325265 Z M930.622616,36 L908.818787,36 C908.567874,36 908.364496,36.2033776 908.364496,36.4542903 L908.364496,40.3975904 L904.45429,40.3975904 C904.203378,40.3975904 904,40.600968 904,40.8518807 L904,62.6557097 C904,62.9066224 904.203378,63.11 904.45429,63.11 L926.258119,63.11 C926.509032,63.11 926.71241,62.9066224 926.71241,62.6557097 L926.71241,58.7124096 L930.622616,58.7124096 C930.873528,58.7124096 931.076906,58.509032 931.076906,58.2581193 L931.076906,36.4542903 C931.076906,36.2033776 930.873528,36 930.622616,36 L930.622616,36 Z" id="Page-1"></path>
            </g>
        </g>
    </g>
</svg>