<?xml version="1.0" encoding="UTF-8"?>
<svg width="21px" height="27px" viewBox="0 0 21 27" version="1.1" xmlns="http://www.w3.org/2000/svg" xmlns:xlink="http://www.w3.org/1999/xlink">
    <!-- Generator: Sketch 39.1 (31720) - http://www.bohemiancoding.com/sketch -->
    <title>Group</title>
    <desc>Created with Sketch.</desc>
    <defs></defs>
    <g id="Page-1" stroke="none" stroke-width="1" fill="none" fill-rule="evenodd">
        <g id="Mentions-légales" transform="translate(-84.000000, -1579.000000)" fill="#FFFFFF">
            <g id="®" transform="translate(60.000000, 1545.000000)">
                <g id="Group" transform="translate(24.000000, 34.000000)">
                    <path d="M6.7596,5.58930682 L14.1015,5.58930682 C14.5284,5.58930682 14.8746,5.23892045 14.8746,4.79648864 L14.8746,3.61554545 C14.8746,3.17771591 14.529,2.82272727 14.0997,2.82272727 L12.9423,2.82272727 C12.9423,2.82272727 12.9423,0.0561477273 10.4304,0.0561477273 C7.9185,0.0561477273 7.9095,2.82272727 7.9095,2.82272727 L6.7575,2.82272727 C6.3315,2.82272727 5.9862,3.17311364 5.9862,3.61554545 L5.9862,4.79648864 C5.9862,5.23431818 6.3348,5.58930682 6.7596,5.58930682 Z" id="Shape"></path>
                    <path d="M18.3663,3.50631818 L16.9602,3.50631818 L16.9602,4.79556818 L18.3663,4.79556818 C18.3663,4.79556818 19.6269,4.79556818 19.6269,6.08451136 L19.6269,24.3653523 C19.6269,25.7874545 18.3663,25.6546023 18.3663,25.6546023 L2.6337,25.6546023 C2.6337,25.6546023 1.3731,25.6546023 1.3731,24.3653523 L1.3731,6.08451136 C1.3731,4.79556818 2.6337,4.79556818 2.6337,4.79556818 L4.0389,4.79556818 L4.0389,3.50631818 L2.6337,3.50631818 C2.6337,3.50631818 0.1125,3.50631818 0.1125,6.08451136 L0.1125,24.3653523 C0.1125,26.9438523 2.6337,26.9438523 2.6337,26.9438523 L18.366,26.9438523 C18.366,26.9438523 20.8872,26.9438523 20.8872,24.3653523 L20.8872,6.08451136 C20.8875,3.50631818 18.3663,3.50631818 18.3663,3.50631818 Z" id="Shape"></path>
                    <rect id="Rectangle-path" x="3.7659" y="15.0343977" width="13.4682" height="1.40768182"></rect>
                    <rect id="Rectangle-path" x="3.7659" y="20.1668523" width="13.4682" height="1.40768182"></rect>
                    <rect id="Rectangle-path" x="3.7659" y="9.90194318" width="13.4682" height="1.40768182"></rect>
                </g>
            </g>
        </g>
    </g>
</svg>