<?xml version="1.0" encoding="UTF-8"?>
<svg width="31px" height="24px" viewBox="0 0 31 24" version="1.1" xmlns="http://www.w3.org/2000/svg" xmlns:xlink="http://www.w3.org/1999/xlink">
    <!-- Generator: Sketch 39.1 (31720) - http://www.bohemiancoding.com/sketch -->
    <title>Shape</title>
    <desc>Created with Sketch.</desc>
    <defs></defs>
    <g id="Page-1" stroke="none" stroke-width="1" fill="none" fill-rule="evenodd">
        <g id="Mentions-légales" transform="translate(-744.000000, -1581.000000)" fill="#FFFFFF">
            <g id="®" transform="translate(60.000000, 1545.000000)">
                <path d="M714.835707,40.1001634 L711.123716,36.3898841 C711.022745,36.2854897 710.884123,36.2273026 710.73181,36.2255913 L710.724964,36.2255913 C710.574362,36.2255913 710.428895,36.2837783 710.3245,36.3881727 L695.757204,50.9554687 L688.672077,43.8720526 C688.454731,43.6615524 688.100475,43.659841 687.877995,43.8737639 L684.169427,47.5823319 C684.06161,47.6884377 684,47.8304825 684,47.9827956 C684,48.1351088 684.06161,48.2805763 684.166004,48.3798366 L695.361875,59.5774186 C695.469692,59.6835243 695.610025,59.74 695.758916,59.74 C695.902672,59.74 696.046428,59.681813 696.155957,59.5757072 L714.832284,40.8959567 C714.940102,40.7898509 715,40.6478061 715,40.4972044 C715,40.3466026 714.940102,40.2045578 714.835707,40.1001634 Z M713.63945,40.4972044 L695.757204,58.3811615 L685.358838,47.984507 L688.276747,45.0648868 L695.358452,52.148303 C695.461135,52.250986 695.606603,52.309173 695.757204,52.309173 L695.762339,52.309173 C695.91294,52.3074616 696.056696,52.2492746 696.154245,52.1465916 L710.721541,37.581007 L713.63945,40.4972044 Z" id="Shape"></path>
            </g>
        </g>
    </g>
</svg>