<?xml version="1.0" encoding="UTF-8"?>
<svg width="33px" height="24px" viewBox="0 0 33 24" version="1.1" xmlns="http://www.w3.org/2000/svg" xmlns:xlink="http://www.w3.org/1999/xlink">
    <!-- Generator: Sketch 41 (35326) - http://www.bohemiancoding.com/sketch -->
    <title>Fill 1</title>
    <desc>Created with Sketch.</desc>
    <defs></defs>
    <g id="Page-1" stroke="none" stroke-width="1" fill="none" fill-rule="evenodd">
        <g id="Desktop-HD-Copy-2" transform="translate(-590.000000, -891.000000)" fill="#C8C8C8">
            <g id="Page-1" transform="translate(590.000000, 891.000000)">
                <path d="M1.5,3.0586125 L16.03125,14.8242375 C16.305375,15.0436125 16.694625,15.0436125 16.96875,14.8242375 L31.5,3.0586125 L31.5,22.5001125 L1.5,22.5001125 L1.5,3.0586125 L1.5,3.0586125 Z M1.945125,1.5001125 L31.054875,1.5001125 L16.5,13.2889875 L1.945125,1.5001125 Z M1.125,0.0001125 C0.514875,0.0001125 0,0.5146125 0,1.1251125 L0,22.8751125 C0,23.4852375 0.514875,24.0001125 1.125,24.0001125 L31.875,24.0001125 C32.485125,24.0001125 33,23.4852375 33,22.8751125 L33,1.1251125 C33,0.5146125 32.485125,0.0001125 31.875,0.0001125 L1.125,0.0001125 L1.125,0.0001125 Z" id="Fill-1"></path>
            </g>
        </g>
    </g>
</svg>