<?xml version="1.0" encoding="UTF-8"?>
<svg width="36px" height="33px" viewBox="0 0 36 33" version="1.1" xmlns="http://www.w3.org/2000/svg" xmlns:xlink="http://www.w3.org/1999/xlink">
    <!-- Generator: Sketch 41 (35326) - http://www.bohemiancoding.com/sketch -->
    <title>Group</title>
    <desc>Created with Sketch.</desc>
    <defs></defs>
    <g id="Page-1" stroke="none" stroke-width="1" fill="none" fill-rule="evenodd">
        <g id="Expertise" transform="translate(-1041.000000, -1116.000000)" fill="#C8C8C8">
            <g id="Group-3" transform="translate(-372.000000, 1089.000000)">
                <g id="blocks" transform="translate(432.000000, 0.000000)">
                    <g id="Group-8" transform="translate(900.400000, 0.000000)">
                        <g id="Group" transform="translate(80.600000, 27.000000)">
                            <polygon id="Shape" points="29.648881 0.053046506 29.648881 5.17650325 24.5370053 5.17650325 24.5370053 10.2995386 19.4251291 10.2995386 19.4251291 15.4230072 14.313253 15.4230072 14.313253 20.5460783 9.20137688 20.5460783 9.20137688 25.6691096 4.08950075 25.6691096 4.08950075 30.7925783 0 30.7925783 0 32.8373458 6.13425152 32.8373458 6.13425152 27.7138771 11.2461273 27.7138771 11.2461273 22.5908458 16.3580034 22.5908458 16.3580034 17.4677747 21.4698795 17.4677747 21.4698795 12.344306 26.5817557 12.344306 26.5817557 7.22125084 31.6936318 7.22125084 31.6936318 2.0977941 35.7831325 2.0977941 35.7831325 0.0530425301 29.648881 0.0530425301"></polygon>
                            <polygon id="Shape" points="30.1864276 15.4830871 24.2646384 21.4180735 24.2646384 18.7666627 22.2198876 18.7666627 22.2198876 24.9124952 28.3541391 24.9124952 28.3541391 22.8677675 25.7063472 22.8677675 31.6337264 16.9272108 30.1864276 15.4830831"></polygon>
                        </g>
                    </g>
                </g>
            </g>
        </g>
    </g>
</svg>