<?xml version="1.0" encoding="UTF-8"?>
<svg width="106px" height="36px" viewBox="0 0 106 36" version="1.1" xmlns="http://www.w3.org/2000/svg" xmlns:xlink="http://www.w3.org/1999/xlink">
    <!-- Generator: Sketch 42 (36781) - http://www.bohemiancoding.com/sketch -->
    <title>logo-white</title>
    <desc>Created with Sketch.</desc>
    <defs></defs>
    <g id="Page-1" stroke="none" stroke-width="1" fill="none" fill-rule="evenodd">
        <g id="A-propos---Desktop" transform="translate(-60.000000, -30.000000)" fill="#FFFFFF">
            <g id="Group-10">
                <g id="logo-white" transform="translate(60.000000, 30.000000)">
                    <g id="Calque_1">
                        <rect id="Rectangle-path" x="33.5071161" y="0.989010989" width="1.98501873" height="33.7054945"></rect>
                        <polygon id="Shape" points="15.2449438 28.1274725 7.22546816 24.2901099 7.22546816 15.1912088 14.9273408 8.22857143 19.0561798 10.2461538 17.388764 11.7494505 15.2449438 10.6813187 9.25018727 16.1406593 9.21048689 22.9450549 13.2202247 24.8835165 13.2202247 18.0791209 20.882397 11.1164835 27.4329588 14.2813187 27.4329588 24.9230769 19.2546816 20.967033 19.2546816 18.1978022 20.2868914 17.2879121 21.2397004 17.7230769 21.2397004 19.6615385 25.4479401 21.6395604 25.4479401 15.6263736 21.2397004 13.6087912 15.2449438 19.0285714"></polygon>
                        <path d="M105.920599,35.6835165 L0,35.6835165 L0,0 L105.9603,0 L105.9603,35.6835165 L105.920599,35.6835165 Z M1.98501873,33.7054945 L103.975281,33.7054945 L103.975281,1.97802198 L1.98501873,1.97802198 L1.98501873,33.7054945 Z" id="Shape"></path>
                        <g id="Group" transform="translate(43.670412, 7.912088)">
                            <path d="M14.5700375,0.237362637 L14.5700375,13.6087912 C14.5700375,15.4681319 13.9745318,16.9714286 12.823221,18.1582418 C11.6719101,19.3450549 10.0838951,20.0175824 8.0988764,20.1362637 L7.42397004,20.1758242 C5.28014981,20.1758242 3.53333333,19.5824176 2.26292135,18.4351648 C0.992509363,17.2879121 0.317602996,15.6659341 0.317602996,13.6483516 L0.317602996,0.237362637 L2.89812734,0.237362637 L2.89812734,13.5692308 C2.89812734,14.9934066 3.29513109,16.1010989 4.08913858,16.8923077 C4.88314607,17.6835165 5.99475655,18.0791209 7.46367041,18.0791209 C8.93258427,18.0791209 10.0838951,17.6835165 10.8382022,16.8923077 C11.6322097,16.1010989 12.0292135,14.9934066 12.0292135,13.5692308 L12.0292135,0.237362637 L14.5700375,0.237362637 Z" id="Shape"></path>
                            <path d="M39.3033708,19.9384615 L39.3033708,0.237362637 L44.8614232,0.237362637 C46.5685393,0.237362637 48.1168539,0.632967033 49.4269663,1.38461538 C50.7370787,2.13626374 51.7692884,3.2043956 52.4838951,4.62857143 C53.1985019,6.01318681 53.5558052,7.63516484 53.5955056,9.45494505 L53.5955056,10.6813187 C53.5955056,12.5406593 53.2382022,14.1626374 52.5235955,15.5472527 C51.8089888,16.9318681 50.776779,18 49.4269663,18.7516484 C48.0771536,19.5032967 46.528839,19.8989011 44.7820225,19.8989011 L39.3033708,19.8989011 L39.3033708,19.9384615 Z M41.9235955,2.37362637 L41.9235955,17.8021978 L44.6629213,17.8021978 C46.6876404,17.8021978 48.2359551,17.1692308 49.3475655,15.9428571 C50.459176,14.7164835 51.0149813,12.9362637 51.0149813,10.6417582 L51.0149813,9.49450549 C51.0149813,7.23956044 50.4988764,5.4989011 49.4269663,4.27252747 C48.3550562,3.04615385 46.8861423,2.41318681 44.940824,2.37362637 L41.9235955,2.37362637 Z" id="Shape"></path>
                        </g>
                        <path d="M73.0089888,20.4527473 C71.7385768,21.5604396 70.4284644,22.0747253 68.8007491,22.0747253 C66.2599251,22.0747253 64.552809,20.4131868 64.552809,18.1978022 C64.552809,16.5758242 65.5453184,15.3494505 67.5700375,14.0835165 L67.0142322,13.4901099 C66.4187266,12.8175824 66.0614232,12.0263736 66.0614232,11.2351648 C66.0614232,9.49450549 67.4906367,8.18901099 69.5550562,8.18901099 C71.6194757,8.18901099 72.8898876,9.33626374 72.8898876,11.0373626 C72.8898876,12.421978 72.0164794,13.4505495 70.2299625,14.4791209 L73.0883895,17.7626374 C73.6838951,17.1692308 74.2794007,16.4175824 74.835206,15.6263736 L76.1453184,17.010989 C75.6292135,17.8417582 75.0337079,18.5142857 74.3191011,19.1472527 L76.6217228,21.7186813 L74.0808989,21.7186813 L73.0089888,20.4527473 Z M68.8007491,15.5868132 L68.4434457,15.8241758 C67.3318352,16.5362637 66.6966292,17.1692308 66.6966292,18.1582418 C66.6966292,19.3450549 67.6494382,20.2945055 68.9198502,20.2945055 C69.8329588,20.2945055 70.7857678,19.8593407 71.7782772,19.0285714 L68.8007491,15.5868132 Z M69.8329588,12.778022 C70.5475655,12.3428571 70.8651685,11.8285714 70.8651685,11.156044 C70.8651685,10.3648352 70.3490637,9.85054945 69.5947566,9.85054945 C68.7610487,9.85054945 68.2052434,10.4043956 68.2052434,11.1956044 C68.2052434,11.5912088 68.3640449,11.9472527 68.6419476,12.2637363 L69.3168539,13.0945055 L69.8329588,12.778022 Z" id="Shape"></path>
                        <rect id="Rectangle-path" x="62.4883895" y="25.8725275" width="14.8479401" height="2.21538462"></rect>
                    </g>
                </g>
            </g>
        </g>
    </g>
</svg>