<?xml version="1.0" encoding="UTF-8"?>
<svg width="31px" height="35px" viewBox="0 0 31 35" version="1.1" xmlns="http://www.w3.org/2000/svg" xmlns:xlink="http://www.w3.org/1999/xlink">
    <!-- Generator: Sketch 41.2 (35397) - http://www.bohemiancoding.com/sketch -->
    <title>Shape</title>
    <desc>Created with Sketch.</desc>
    <defs></defs>
    <g id="Page-1" stroke="none" stroke-width="1" fill="none" fill-rule="evenodd">
        <g id="Accueil" transform="translate(-1080.000000, -1177.000000)" fill="#FFC619">
            <g id="Group-4" transform="translate(735.000000, 1007.000000)">
                <path d="M345.130772,196.25 C345.310827,196.561889 345.637494,196.736111 345.973494,196.736111 C346.138383,196.736111 346.305605,196.694111 346.458827,196.605833 L349.771772,194.693278 L349.771772,198.518778 C349.771772,199.055833 350.206939,199.491 350.743994,199.491 C351.28105,199.491 351.716216,199.055833 351.716216,198.518778 L351.716216,193.570556 L359.313939,189.183889 L359.313939,197.957222 L355.028772,200.430944 C354.563661,200.699278 354.404605,201.293889 354.672939,201.759 C354.852994,202.070889 355.179661,202.245111 355.515661,202.245111 C355.68055,202.245111 355.847772,202.203111 356.000994,202.114833 L359.313939,200.202278 L359.313939,204.027778 C359.313939,204.564833 359.749105,205 360.286161,205 C360.823216,205 361.258383,204.564833 361.258383,204.027778 L361.258383,200.202667 L364.571327,202.115222 C364.72455,202.203889 364.891772,202.2455 365.056661,202.2455 C365.392661,202.2455 365.719716,202.070889 365.899383,201.759389 C366.167716,201.294278 366.008661,200.699667 365.54355,200.431333 L361.258383,197.957222 L361.258383,189.183889 L368.856494,193.570556 L368.856494,198.518389 C368.856494,199.055444 369.291661,199.490611 369.828716,199.490611 C370.365772,199.490611 370.800939,199.055444 370.800939,198.518389 L370.800939,194.692889 L374.113883,196.605444 C374.267105,196.694111 374.434327,196.735722 374.599216,196.735722 C374.935216,196.735722 375.262272,196.561111 375.441939,196.249611 C375.710272,195.7845 375.551216,195.189889 375.086105,194.921556 L371.773161,193.009 L375.086105,191.096444 C375.551216,190.828111 375.710272,190.2335 375.441939,189.768389 C375.173605,189.303278 374.578994,189.143444 374.113883,189.412556 L369.828327,191.886667 L362.230605,187.5 L369.828327,183.113333 L374.113494,185.587056 C374.266716,185.675722 374.433939,185.717333 374.598827,185.717333 C374.934827,185.717333 375.261883,185.542722 375.44155,185.231222 C375.709883,184.766111 375.550827,184.1715 375.085716,183.903167 L371.772772,181.990611 L375.085716,180.078056 C375.550827,179.809722 375.709883,179.215111 375.44155,178.75 C375.173216,178.284889 374.578605,178.125056 374.113494,178.394167 L370.80055,180.306722 L370.80055,176.481222 C370.80055,175.944167 370.365383,175.509 369.828327,175.509 C369.291272,175.509 368.856105,175.944167 368.856105,176.481222 L368.856105,181.429444 L361.258383,185.816111 L361.258383,177.042778 L365.54355,174.569056 C366.008661,174.300722 366.167716,173.706111 365.899383,173.241 C365.630661,172.775889 365.036439,172.615667 364.571327,172.885167 L361.258383,174.797333 L361.258383,170.972222 C361.258383,170.435167 360.823216,170 360.286161,170 C359.749105,170 359.313939,170.435167 359.313939,170.972222 L359.313939,174.797333 L356.000994,172.884778 C355.535494,172.615278 354.941272,172.775889 354.672939,173.240611 C354.404605,173.705722 354.563661,174.300333 355.028772,174.568667 L359.313939,177.042778 L359.313939,185.816111 L351.715827,181.429444 L351.715827,176.481611 C351.715827,175.944556 351.280661,175.509389 350.743605,175.509389 C350.20655,175.509389 349.771383,175.944556 349.771383,176.481611 L349.771383,180.307111 L346.458439,178.394556 C345.992939,178.125444 345.398716,178.285667 345.130383,178.750389 C344.86205,179.2155 345.021105,179.810111 345.486216,180.078444 L348.799161,181.991 L345.486216,183.903556 C345.021105,184.171889 344.86205,184.7665 345.130383,185.231611 C345.310439,185.5435 345.637105,185.717722 345.973105,185.717722 C346.137994,185.717722 346.305216,185.675722 346.458439,185.587444 L350.743605,183.113722 L358.341716,187.5 L350.743994,191.886667 L346.458827,189.412944 C345.993327,189.143833 345.399105,189.304056 345.130772,189.768778 C344.862439,190.233889 345.021494,190.8285 345.486605,191.096833 L348.79955,193.009389 L345.486605,194.921944 C345.021494,195.190278 344.86205,195.784889 345.130772,196.25 Z" id="Shape"></path>
            </g>
        </g>
    </g>
</svg>