<?xml version="1.0" encoding="UTF-8"?>
<svg width="37px" height="32px" viewBox="0 0 37 32" version="1.1" xmlns="http://www.w3.org/2000/svg" xmlns:xlink="http://www.w3.org/1999/xlink">
    <!-- Generator: Sketch 42 (36781) - http://www.bohemiancoding.com/sketch -->
    <title>Page 1 Copy</title>
    <desc>Created with Sketch.</desc>
    <defs>
        <polygon id="path-1" points="0.388253884 0.383941833 0.388253884 7.53764785 25.2997847 7.53764785 25.2997847 0.383941833"></polygon>
        <polygon id="path-3" points="11.2585543 4.31735248 11.2585543 0.0885374063 0.0470032378 0.0885374063 0.0470032378 4.31735248 11.2585543 4.31735248"></polygon>
    </defs>
    <g id="Page-1" stroke="none" stroke-width="1" fill="none" fill-rule="evenodd">
        <g id="Desktop-HD" transform="translate(-1072.000000, -1005.000000)">
            <g id="chiffres" transform="translate(739.000000, 1005.000000)">
                <g id="Page-1-Copy" transform="translate(333.000000, 0.000000)">
                    <g id="Group-3" transform="translate(5.450866, 0.035877)">
                        <mask id="mask-2" fill="white">
                            <use xlink:href="#path-1"></use>
                        </mask>
                        <g id="Clip-2"></g>
                        <path d="M2.04327813,7.14467496 C2.87767994,6.95627072 3.36951578,6.20810865 4.02571621,5.65926065 C5.0722825,4.78353759 6.25134677,4.06936382 7.50965825,3.54149625 C9.22710037,2.82144796 11.0091143,2.48072581 12.7634546,2.48072581 C16.7312658,2.48072581 20.5510651,4.22839546 23.1507089,7.27097714 C23.6773464,7.88654289 25.9189103,7.37294202 25.1352435,6.37930894 C20.8659574,0.96761734 13.3559218,-1.18455497 6.69957568,1.60668118 C4.25004031,2.63388293 2.14726388,4.22713664 0.528356646,6.24209695 C-0.016729966,6.92060399 1.17197814,7.19125151 1.6457842,7.18873386 C1.78708742,7.18831425 1.9187468,7.17278873 2.04327813,7.14467496" id="Fill-1" fill="#FFCB0D" mask="url(#mask-2)"></path>
                    </g>
                    <path d="M21.3280232,29.469319 C19.3225237,29.9489316 17.219328,29.9569042 15.2117321,29.4869426 C12.4259202,28.8348709 10.020411,27.4040057 8.19646738,25.4192572 C8.04593961,25.2551902 7.83671022,25.1586803 7.6140633,25.1586803 L6.92725417,25.1586803 C6.25008888,25.1586803 5.88068787,25.9571954 6.32262733,26.4703766 C7.9193118,28.3242072 9.94074454,29.7890607 12.2699416,30.7432506 C14.1949359,31.5316951 16.2142721,31.9261271 18.2336084,31.9261271 C20.2952937,31.9261271 22.3565597,31.5153303 24.3150978,30.6937368 C26.6325545,29.7219234 28.5936084,28.2545522 30.1315912,26.4674394 C30.5726921,25.9550973 30.2011946,25.1582607 29.5252872,25.1582607 L29.0548355,25.1582607 C28.6975941,25.1582607 28.3625755,25.3139354 28.116448,25.5732535 C26.369655,27.418692 24.0698088,28.8134708 21.3280232,29.469319" id="Fill-4" fill="#FFCB0D"></path>
                    <path d="M5.85469144,16.516842 C8.26858653,16.9154701 10.3353034,14.8472195 9.93697086,12.431533 C9.69587486,10.9679384 8.51639129,9.78715987 7.05430128,9.54420651 C4.63914829,9.14348034 2.56949636,11.213829 2.96992537,13.6311939 C3.21227926,15.0952082 4.39218213,16.2751474 5.85469144,16.516842" id="Fill-6" fill="#FFCB0D"></path>
                    <g id="Group-10" transform="translate(0.000000, 18.918262)" fill="#FFCB0D">
                        <path d="M10.2355106,4.36350942 C10.3986173,3.31910371 10.8174954,2.36365502 11.4154135,1.54919481 C10.5248258,0.728440461 9.33737559,0.225749406 8.03377999,0.225749406 L4.87269694,0.225749406 C2.52085786,0.225749406 0.544289947,1.85970514 0.0151366359,4.05257948 C-0.0691421402,4.40211341 0.209690627,4.73696104 0.569028493,4.73696104 L1.41600923,4.73696104 L10.1772283,4.73696104 L10.2355106,4.36350942 Z" id="Fill-8"></path>
                    </g>
                    <path d="M26.5696599,12.7118315 C26.1692309,15.1291965 28.2384635,17.1999647 30.6540358,16.7988189 C32.1165451,16.5558656 33.2956094,15.3750871 33.5367054,13.9114924 C33.9350379,11.4962255 31.8679017,9.42755533 29.4544259,9.82618346 C27.9919166,10.067878 26.8120138,11.2482369 26.5696599,12.7118315" id="Fill-11" fill="#FFCB0D"></path>
                    <g id="Group-15" transform="translate(25.157844, 19.337870)">
                        <mask id="mask-4" fill="white">
                            <use xlink:href="#path-3"></use>
                        </mask>
                        <g id="Clip-14"></g>
                        <path d="M6.47567088,0.0885374063 L3.31458783,0.0885374063 C2.06508159,0.0885374063 0.922915493,0.550526431 0.0470032378,1.31253558 C0.561061842,2.08167807 0.919980411,2.97124822 1.07176607,3.94390086 L1.13004841,4.31735248 L9.8820429,4.31735248 L10.6950605,4.31735248 C11.0837492,4.31735248 11.3487452,3.9359283 11.230084,3.56583355 C10.584366,1.55171246 8.70004355,0.0885374063 6.47567088,0.0885374063" id="Fill-13" fill="#FFCB0D" mask="url(#mask-4)"></path>
                    </g>
                    <path d="M22.5167313,13.9093944 C23.0077285,10.9381461 20.4646898,8.39280062 17.4952257,8.88416225 C15.6964399,9.18166472 14.2456709,10.6335103 13.948389,12.4336311 C13.4573918,15.4052989 16.0000112,17.9498052 18.9694753,17.4584436 C20.7686804,17.1613607 22.2194494,15.7095151 22.5167313,13.9093944" id="Fill-16" fill="#FFCB0D"></path>
                    <path d="M11.8074565,23.0816179 C11.7529479,23.3002339 11.9147967,23.5142343 12.1399594,23.5142343 L13.2456466,23.5142343 L23.2194737,23.5142343 L24.3251609,23.5142343 C24.5503236,23.5142343 24.7121724,23.3006536 24.6576638,23.0816179 C24.1171894,20.9051083 22.1532004,19.2854192 19.8131017,19.2854192 L16.6520186,19.2854192 C14.3123392,19.2854192 12.3479309,20.9046887 11.8074565,23.0816179" id="Fill-18" fill="#FFCB0D"></path>
                </g>
            </g>
        </g>
    </g>
</svg>