<?xml version="1.0" encoding="UTF-8"?>
<svg width="32px" height="30px" viewBox="0 0 32 30" version="1.1" xmlns="http://www.w3.org/2000/svg" xmlns:xlink="http://www.w3.org/1999/xlink">
    <!-- Generator: Sketch 42 (36781) - http://www.bohemiancoding.com/sketch -->
    <title>Fill 1</title>
    <desc>Created with Sketch.</desc>
    <defs></defs>
    <g id="Page-1" stroke="none" stroke-width="1" fill="none" fill-rule="evenodd">
        <g id="Desktop-HD" transform="translate(-740.000000, -1006.000000)" fill="#FFCB0D">
            <g id="chiffres" transform="translate(739.000000, 1005.000000)">
                <path d="M18.3676423,1.75442377 L9.77728941,3.09427817 L1.09685408,11.7740631 C0.939453706,11.9321139 0.939453706,12.1883773 1.09815491,12.3470785 L4.62145164,15.8710256 C4.78047805,16.0297268 5.03641626,16.0297268 5.19446704,15.8710256 L13.5835166,7.48230133 L19.554324,2.94078029 C19.7130252,2.78305471 19.7130252,2.5267913 19.5539988,2.3680901 L19.1790347,1.99280078 C19.0203335,1.83377437 18.7868346,1.68450419 18.3676423,1.75442377 L18.3676423,1.75442377 Z M10.91519,11.0364928 L28.9973707,30.3450304 C29.5050194,30.8523539 30.3290949,30.8517035 30.8360932,30.3450304 L32.5977416,28.5824064 C33.1060407,28.0750829 33.1060407,27.2513326 32.5977416,26.7436839 L13.2898543,8.66182849 L10.91519,11.0364928 Z" id="Fill-1"></path>
            </g>
        </g>
    </g>
</svg>