<?xml version="1.0" encoding="UTF-8"?>
<svg width="28px" height="35px" viewBox="0 0 28 35" version="1.1" xmlns="http://www.w3.org/2000/svg" xmlns:xlink="http://www.w3.org/1999/xlink">
    <!-- Generator: Sketch 42 (36781) - http://www.bohemiancoding.com/sketch -->
    <title>Page 1</title>
    <desc>Created with Sketch.</desc>
    <defs>
        <polygon id="path-1" points="0 34.8544318 27.6996 34.8544318 27.6996 0 0 0"></polygon>
    </defs>
    <g id="Page-1" stroke="none" stroke-width="1" fill="none" fill-rule="evenodd">
        <g id="Contact---Desktop---Etape-1" transform="translate(-818.000000, -884.000000)">
            <g id="form-etape2" transform="translate(315.000000, 660.000000)">
                <g id="Group-4" transform="translate(421.000000, 202.000000)">
                    <g id="Page-1" transform="translate(82.000000, 22.000000)">
                        <path d="M8.8628,7.17261364 L18.652,7.17261364 C19.2212,7.17261364 19.6828,6.71840909 19.6828,6.14488636 L19.6828,4.61403409 C19.6828,4.04647727 19.222,3.58630682 18.6496,3.58630682 L17.1064,3.58630682 C17.1064,3.58630682 17.1064,0 13.7572,0 C10.408,0 10.396,3.58630682 10.396,3.58630682 L8.86,3.58630682 C8.292,3.58630682 7.8316,4.04051136 7.8316,4.61403409 L7.8316,6.14488636 C7.8316,6.71244318 8.2964,7.17261364 8.8628,7.17261364 L8.8628,7.17261364 Z" id="Fill-1" fill="#FFFFFF"></path>
                        <path d="M24.3384,4.47244318 L22.4636,4.47244318 L22.4636,6.14369318 L24.3384,6.14369318 C24.3384,6.14369318 26.0192,6.14369318 26.0192,7.81454545 L26.0192,31.5119318 C26.0192,33.3553977 24.3384,33.1831818 24.3384,33.1831818 L3.3616,33.1831818 C3.3616,33.1831818 1.6808,33.1831818 1.6808,31.5119318 L1.6808,7.81454545 C1.6808,6.14369318 3.3616,6.14369318 3.3616,6.14369318 L5.2352,6.14369318 L5.2352,4.47244318 L3.3616,4.47244318 C3.3616,4.47244318 0,4.47244318 0,7.81454545 L0,31.5119318 C0,34.8544318 3.3616,34.8544318 3.3616,34.8544318 L24.338,34.8544318 C24.338,34.8544318 27.6996,34.8544318 27.6996,31.5119318 L27.6996,7.81454545 C27.7,4.47244318 24.3384,4.47244318 24.3384,4.47244318" id="Fill-3" fill="#FFFFFF"></path>
                        <mask id="mask-2" fill="white">
                            <use xlink:href="#path-1"></use>
                        </mask>
                        <g id="Clip-6"></g>
                        <polygon id="Fill-5" fill="#FFFFFF" mask="url(#mask-2)" points="4.8712 21.2410227 22.8288 21.2410227 22.8288 19.41625 4.8712 19.41625"></polygon>
                        <polygon id="Fill-7" fill="#FFFFFF" mask="url(#mask-2)" points="4.8712 27.8942045 22.8288 27.8942045 22.8288 26.0694318 4.8712 26.0694318"></polygon>
                        <polygon id="Fill-8" fill="#FFFFFF" mask="url(#mask-2)" points="4.8712 14.5878409 22.8288 14.5878409 22.8288 12.7630682 4.8712 12.7630682"></polygon>
                    </g>
                </g>
            </g>
        </g>
    </g>
</svg>