<?xml version="1.0" encoding="UTF-8"?>
<svg width="41px" height="35px" viewBox="0 0 41 35" version="1.1" xmlns="http://www.w3.org/2000/svg" xmlns:xlink="http://www.w3.org/1999/xlink">
    <!-- Generator: Sketch 41.2 (35397) - http://www.bohemiancoding.com/sketch -->
    <title>Shape</title>
    <desc>Created with Sketch.</desc>
    <defs></defs>
    <g id="Page-1" stroke="none" stroke-width="1" fill="none" fill-rule="evenodd">
        <g id="Accueil" transform="translate(-1075.000000, -1009.000000)" fill="#FFC619">
            <g id="Group-4" transform="translate(735.000000, 1007.000000)">
                <path d="M380.452496,12.7737387 L360.916762,2.97982426 C360.656286,2.8235384 360.343714,2.8235384 360.031142,2.97982426 L340.547504,12.7737387 C340.130742,12.9821198 339.922361,13.4509774 340.026551,13.8677397 C340.130742,14.284502 340.547504,14.5970738 340.964267,14.5970738 L359.51019,14.5970738 L359.51019,27.9334678 L345.496557,27.9334678 C344.975604,27.9334678 344.506746,28.3502302 344.506746,28.9232783 C344.506746,29.4442312 344.923508,29.9130888 345.496557,29.9130888 L349.403703,29.9130888 L349.403703,35.4351895 C349.403703,35.9561424 349.820466,36.425 350.393514,36.425 C350.966562,36.425 351.383324,36.0082377 351.383324,35.4351895 L351.383324,29.9130888 L369.616676,29.9130888 L369.616676,35.4351895 C369.616676,35.9561424 370.033438,36.425 370.606486,36.425 C371.127439,36.425 371.596297,36.0082377 371.596297,35.4351895 L371.596297,29.9130888 L375.503443,29.9130888 C376.024396,29.9130888 376.493254,29.4963265 376.493254,28.9232783 C376.493254,28.4023254 376.076492,27.9334678 375.503443,27.9334678 L361.48981,27.9334678 L361.48981,14.5970738 L380.035733,14.5970738 C380.504591,14.5970738 380.869258,14.284502 380.973449,13.8677397 C381.077639,13.3988821 380.869258,12.9821198 380.452496,12.7737387 Z M345.13189,12.6695481 L360.5,4.95944526 L375.86811,12.6695481 L345.13189,12.6695481 Z" id="Shape"></path>
            </g>
        </g>
    </g>
</svg>