<?xml version="1.0" encoding="UTF-8"?>
<svg width="50px" height="37px" viewBox="0 0 50 37" version="1.1" xmlns="http://www.w3.org/2000/svg" xmlns:xlink="http://www.w3.org/1999/xlink">
    <!-- Generator: Sketch 41.2 (35397) - http://www.bohemiancoding.com/sketch -->
    <title>Shape</title>
    <desc>Created with Sketch.</desc>
    <defs></defs>
    <g id="Page-1" stroke="none" stroke-width="1" fill="none" fill-rule="evenodd">
        <g id="Accueil" transform="translate(-735.000000, -1007.000000)" fill="#FFC619">
            <g id="Group-4" transform="translate(735.000000, 1007.000000)">
                <path d="M19.0862069,0 C18.6196408,6.00900735e-05 18.241426,0.487244429 18.2413793,1.08823529 L18.2413793,8.70588235 L13.1724138,8.70588235 L1.34482759,8.70588235 C0.878261518,8.70594244 0.50004665,9.19312678 0.5,9.79411765 L0.5,18.5 C0.50004665,19.1009909 0.878261518,19.5881752 1.34482759,19.5882353 L6.4137931,19.5882353 L6.4137931,26.1176471 L1.34482759,26.1176471 C0.878261518,26.1177071 0.50004665,26.6048915 0.5,27.2058824 L0.5,35.9117647 C0.50004665,36.5127556 0.878261518,36.9999399 1.34482759,37 L13.1724138,37 L25,37 L36.8275862,37 L48.6551724,37 C49.1217385,36.9999399 49.4999534,36.5127556 49.5,35.9117647 L49.5,27.2058824 C49.4999534,26.6048915 49.1217385,26.1177071 48.6551724,26.1176471 L43.5862069,26.1176471 L43.5862069,19.5882353 L48.6551724,19.5882353 C49.1217385,19.5881752 49.4999534,19.1009909 49.5,18.5 L49.5,9.79411765 C49.4999534,9.19312678 49.1217385,8.70594244 48.6551724,8.70588235 L43.5862069,8.70588235 L43.5862069,1.08823529 C43.5861602,0.487244429 43.2079454,6.00900735e-05 42.7413793,0 L30.9137931,0 L19.0862069,0 Z M19.9310345,2.17647059 L30.0689655,2.17647059 L30.0689655,8.70588235 L25.0594015,8.70588235 L25,8.70588235 L19.9310345,8.70588235 L19.9310345,2.17647059 Z M31.7586207,2.17647059 L41.8965517,2.17647059 L41.8965517,8.70588235 L36.8869877,8.70588235 L36.8275862,8.70588235 L31.7586207,8.70588235 L31.7586207,2.17647059 Z M2.18965517,10.8823529 L12.3275862,10.8823529 L12.3275862,17.4117647 L2.18965517,17.4117647 L2.18965517,10.8823529 Z M14.0172414,10.8823529 L24.1551724,10.8823529 L24.1551724,17.4117647 L19.0862069,17.4117647 L14.0172414,17.4117647 L14.0172414,10.8823529 Z M25.8448276,10.8823529 L30.9137931,10.8823529 L35.9827586,10.8823529 L35.9827586,17.4117647 L30.9137931,17.4117647 L25.8448276,17.4117647 L25.8448276,10.8823529 Z M37.6724138,10.8823529 L42.7413793,10.8823529 L47.8103448,10.8823529 L47.8103448,17.4117647 L42.7413793,17.4117647 L37.6724138,17.4117647 L37.6724138,10.8823529 Z M8.10344828,19.5882353 L13.1724138,19.5882353 L18.2413793,19.5882353 L18.2413793,26.1176471 L13.2318156,26.1176471 L13.1724138,26.1176471 L8.10344828,26.1176471 L8.10344828,19.5882353 Z M19.9310345,19.5882353 L25,19.5882353 L30.0689655,19.5882353 L30.0689655,26.1176471 L25.0594015,26.1176471 L25,26.1176471 L19.9310345,26.1176471 L19.9310345,19.5882353 Z M31.7586207,19.5882353 L36.8275862,19.5882353 L41.8965517,19.5882353 L41.8965517,26.1176471 L36.8869877,26.1176471 L36.8275862,26.1176471 L31.7586207,26.1176471 L31.7586207,19.5882353 Z M2.18965517,28.2941176 L7.25862069,28.2941176 L12.3275862,28.2941176 L12.3275862,34.8235294 L2.18965517,34.8235294 L2.18965517,28.2941176 Z M14.0172414,28.2941176 L19.0862069,28.2941176 L24.1551724,28.2941176 L24.1551724,34.8235294 L14.0172414,34.8235294 L14.0172414,28.2941176 Z M25.8448276,28.2941176 L30.9137931,28.2941176 L35.9827586,28.2941176 L35.9827586,34.8235294 L25.8448276,34.8235294 L25.8448276,28.2941176 Z M37.6724138,28.2941176 L42.7413793,28.2941176 L47.8103448,28.2941176 L47.8103448,34.8235294 L37.6724138,34.8235294 L37.6724138,28.2941176 Z" id="Shape"></path>
            </g>
        </g>
    </g>
</svg>