<?xml version="1.0" encoding="UTF-8"?>
<svg width="35px" height="34px" viewBox="0 0 35 34" version="1.1" xmlns="http://www.w3.org/2000/svg" xmlns:xlink="http://www.w3.org/1999/xlink">
    <!-- Generator: Sketch 42 (36781) - http://www.bohemiancoding.com/sketch -->
    <title>Shape</title>
    <desc>Created with Sketch.</desc>
    <defs></defs>
    <g id="Page-1" stroke="none" stroke-width="1" fill="none" fill-rule="evenodd">
        <g id="A-propos" transform="translate(-739.000000, -1004.000000)" fill="#FFC619">
            <g id="chiffres" transform="translate(739.000000, 1004.000000)">
                <path d="M30.9108884,33.2568684 C30.9104776,33.2568684 30.9104776,33.2568684 30.9108884,33.2568684 C30.2889984,33.2568684 29.7044876,33.0145203 29.2653857,32.5754184 L11.4601923,13.5638243 L6.91924571,18.1047709 C6.382383,18.6440981 5.43681456,18.6473842 4.89461198,18.1051816 L0.418565383,13.6287243 C-0.13842454,13.0709128 -0.139656818,12.1631343 0.415690067,11.6049121 L8.50395598,3.51705692 L15.3168135,0.208799666 C15.9382927,-0.129255428 16.6472637,-0.049568079 17.090884,0.395284492 L19.8466696,3.1518917 C20.1177709,3.42258223 20.2668766,3.7832291 20.2664659,4.16646774 C20.2660551,4.54929562 20.1161279,4.90912097 19.8442051,5.17898998 L15.3061338,9.71788279 L34.2939038,27.4996629 C34.7576514,27.9621781 34.9999995,28.5462781 34.9999995,29.1681681 C35.0004102,29.790058 34.7580621,30.3749796 34.3177279,30.8144923 L32.5568018,32.5758291 C32.1168783,33.0149311 31.5323675,33.2568684 30.9108884,33.2568684 Z M13.3418817,12.5681432 L30.7412447,31.1472075 C30.7839637,31.189105 30.8591327,31.2030708 30.9108884,31.2030708 L30.9108884,31.2030708 C30.9626441,31.2030708 31.0382238,31.189105 31.1047669,31.1229727 L32.865693,29.3616358 C32.932236,29.2950928 32.9457911,29.219513 32.9457911,29.1681681 C32.9457911,29.1168231 32.932236,29.0416541 32.8661037,28.9759326 L14.3104527,11.5991614 L13.3418817,12.5681432 Z M2.30970226,12.6153805 L5.90631271,16.2124017 L17.9547113,4.16400318 L15.9674566,2.17592706 L9.71199976,5.21349378 L2.30970226,12.6153805 Z" id="Shape"></path>
            </g>
        </g>
    </g>
</svg>