<?xml version="1.0" encoding="UTF-8"?>
<svg width="38px" height="30px" viewBox="0 0 38 30" version="1.1" xmlns="http://www.w3.org/2000/svg" xmlns:xlink="http://www.w3.org/1999/xlink">
    <!-- Generator: Sketch 42 (36781) - http://www.bohemiancoding.com/sketch -->
    <title>Page 1</title>
    <desc>Created with Sketch.</desc>
    <defs>
        <polygon id="path-1" points="19.0000414 29.6178381 38 29.6178381 38 0.000191081594 8.28349957e-05 0.000191081594 8.28349957e-05 29.6178381"></polygon>
    </defs>
    <g id="Page-1" stroke="none" stroke-width="1" fill="none" fill-rule="evenodd">
        <g id="Desktop-HD" transform="translate(-741.000000, -1114.000000)">
            <g id="chiffres" transform="translate(739.000000, 1005.000000)">
                <g id="Page-1" transform="translate(2.000000, 109.000000)">
                    <mask id="mask-2" fill="white">
                        <use xlink:href="#path-1"></use>
                    </mask>
                    <g id="Clip-2"></g>
                    <path d="M19.004085,3.82182296 L6.179085,13.8536066 L6.179085,29.6178381 L15.204085,29.6178381 L15.204085,20.0637584 L22.804085,20.0637584 L22.804085,29.6178381 L31.829085,29.6178381 L31.829085,13.8536066 L19.004085,3.82182296 Z M18.974635,0.000191081594 C18.775135,0.00449041746 18.588935,0.0708912713 18.410335,0.194138899 L0.360335,14.5252584 C-0.054815,14.8606066 -0.113715,15.479711 0.196935,15.8838486 C0.50331,16.2822537 1.155485,16.3457883 1.547835,16.0328922 L19.004085,2.17947666 L36.460335,16.0328922 C36.852685,16.3457883 37.48681,16.2798652 37.79651,15.8838486 C38.10336,15.4906982 38.070585,14.8381546 37.647835,14.5252584 L29.929085,8.39010617 L29.929085,0.000191081594 L26.129085,0.000191081594 L26.129085,5.37436091 L19.597835,0.194138899 C19.38646,0.0541716319 19.17366,-0.00410825427 18.974635,0.000191081594 L18.974635,0.000191081594 Z" id="Fill-1" fill="#FFCB0D" mask="url(#mask-2)"></path>
                </g>
            </g>
        </g>
    </g>
</svg>