<?xml version="1.0" encoding="UTF-8"?>
<svg width="31px" height="35px" viewBox="0 0 31 35" version="1.1" xmlns="http://www.w3.org/2000/svg" xmlns:xlink="http://www.w3.org/1999/xlink">
    <!-- Generator: Sketch 42 (36781) - http://www.bohemiancoding.com/sketch -->
    <title>Shape</title>
    <desc>Created with Sketch.</desc>
    <defs></defs>
    <g id="Page-1" stroke="none" stroke-width="1" fill="none" fill-rule="evenodd">
        <g id="Savoir-faire---Desktop" transform="translate(-1267.000000, -1116.000000)" fill="#FFFFFF">
            <g id="Group-3" transform="translate(-372.000000, 1089.000000)">
                <g id="blocks" transform="translate(432.000000, 0.000000)">
                    <g id="Group-9" transform="translate(1126.000000, 0.000000)">
                        <g id="brickwall-copy-5" transform="translate(81.000000, 27.000000)">
                            <path d="M0.130771839,26.25 C0.310827395,26.5618889 0.637494061,26.7361111 0.973494061,26.7361111 C1.13838295,26.7361111 1.30560517,26.6941111 1.45882739,26.6058333 L4.77177184,24.6932778 L4.77177184,28.5187778 C4.77177184,29.0558333 5.20693851,29.491 5.74399406,29.491 C6.28104962,29.491 6.71621628,29.0558333 6.71621628,28.5187778 L6.71621628,23.5705556 L14.3139385,19.1838889 L14.3139385,27.9572222 L10.0287718,30.4309444 C9.56366073,30.6992778 9.40460517,31.2938889 9.67293851,31.759 C9.85299406,32.0708889 10.1796607,32.2451111 10.5156607,32.2451111 C10.6805496,32.2451111 10.8477718,32.2031111 11.0009941,32.1148333 L14.3139385,30.2022778 L14.3139385,34.0277778 C14.3139385,34.5648333 14.7491052,35 15.2861607,35 C15.8232163,35 16.258383,34.5648333 16.258383,34.0277778 L16.258383,30.2026667 L19.5713274,32.1152222 C19.7245496,32.2038889 19.8917718,32.2455 20.0566607,32.2455 C20.3926607,32.2455 20.7197163,32.0708889 20.899383,31.7593889 C21.1677163,31.2942778 21.0086607,30.6996667 20.5435496,30.4313333 L16.258383,27.9572222 L16.258383,19.1838889 L23.8564941,23.5705556 L23.8564941,28.5183889 C23.8564941,29.0554444 24.2916607,29.4906111 24.8287163,29.4906111 C25.3657718,29.4906111 25.8009385,29.0554444 25.8009385,28.5183889 L25.8009385,24.6928889 L29.113883,26.6054444 C29.2671052,26.6941111 29.4343274,26.7357222 29.5992163,26.7357222 C29.9352163,26.7357222 30.2622718,26.5611111 30.4419385,26.2496111 C30.7102718,25.7845 30.5512163,25.1898889 30.0861052,24.9215556 L26.7731607,23.009 L30.0861052,21.0964444 C30.5512163,20.8281111 30.7102718,20.2335 30.4419385,19.7683889 C30.1736052,19.3032778 29.5789941,19.1434444 29.113883,19.4125556 L24.8283274,21.8866667 L17.2306052,17.5 L24.8283274,13.1133333 L29.1134941,15.5870556 C29.2667163,15.6757222 29.4339385,15.7173333 29.5988274,15.7173333 C29.9348274,15.7173333 30.261883,15.5427222 30.4415496,15.2312222 C30.709883,14.7661111 30.5508274,14.1715 30.0857163,13.9031667 L26.7727718,11.9906111 L30.0857163,10.0780556 C30.5508274,9.80972222 30.709883,9.21511111 30.4415496,8.75 C30.1732163,8.28488889 29.5786052,8.12505556 29.1134941,8.39416667 L25.8005496,10.3067222 L25.8005496,6.48122222 C25.8005496,5.94416667 25.365383,5.509 24.8283274,5.509 C24.2912718,5.509 23.8561052,5.94416667 23.8561052,6.48122222 L23.8561052,11.4294444 L16.258383,15.8161111 L16.258383,7.04277778 L20.5435496,4.56905556 C21.0086607,4.30072222 21.1677163,3.70611111 20.899383,3.241 C20.6306607,2.77588889 20.0364385,2.61566667 19.5713274,2.88516667 L16.258383,4.79733333 L16.258383,0.972222222 C16.258383,0.435166667 15.8232163,0 15.2861607,0 C14.7491052,0 14.3139385,0.435166667 14.3139385,0.972222222 L14.3139385,4.79733333 L11.0009941,2.88477778 C10.5354941,2.61527778 9.94127184,2.77588889 9.67293851,3.24061111 C9.40460517,3.70572222 9.56366073,4.30033333 10.0287718,4.56866667 L14.3139385,7.04277778 L14.3139385,15.8161111 L6.71582739,11.4294444 L6.71582739,6.48161111 C6.71582739,5.94455556 6.28066073,5.50938889 5.74360517,5.50938889 C5.20654962,5.50938889 4.77138295,5.94455556 4.77138295,6.48161111 L4.77138295,10.3071111 L1.45843851,8.39455556 C0.992938506,8.12544444 0.398716283,8.28566667 0.13038295,8.75038889 C-0.137950383,9.2155 0.0211051723,9.81011111 0.486216283,10.0784444 L3.79916073,11.991 L0.486216283,13.9035556 C0.0211051723,14.1718889 -0.137950383,14.7665 0.13038295,15.2316111 C0.310438506,15.5435 0.637105172,15.7177222 0.973105172,15.7177222 C1.13799406,15.7177222 1.30521628,15.6757222 1.45843851,15.5874444 L5.74360517,13.1137222 L13.3417163,17.5 L5.74399406,21.8866667 L1.45882739,19.4129444 C0.993327395,19.1438333 0.399105172,19.3040556 0.130771839,19.7687778 C-0.137561494,20.2338889 0.0214940612,20.8285 0.486605172,21.0968333 L3.79954962,23.0093889 L0.486605172,24.9219444 C0.0214940612,25.1902778 -0.137950383,25.7848889 0.130771839,26.25 Z" id="Shape"></path>
                        </g>
                    </g>
                </g>
            </g>
        </g>
    </g>
</svg>