<?xml version="1.0" encoding="UTF-8"?>
<svg width="38px" height="32px" viewBox="0 0 38 32" version="1.1" xmlns="http://www.w3.org/2000/svg" xmlns:xlink="http://www.w3.org/1999/xlink">
    <!-- Generator: Sketch 42 (36781) - http://www.bohemiancoding.com/sketch -->
    <title>Shape</title>
    <desc>Created with Sketch.</desc>
    <defs></defs>
    <g id="Page-1" stroke="none" stroke-width="1" fill="none" fill-rule="evenodd">
        <g id="A-propos" transform="translate(-741.000000, -1113.000000)" fill="#FFC61A">
            <g id="chiffres" transform="translate(739.000000, 1004.000000)">
                <path d="M20.9973636,109.836149 C20.7127296,109.841246 20.4236653,109.942656 20.1429425,110.125783 L2.5331803,124.028227 C2.08081328,124.477391 1.76280415,125.444538 2.2290643,126.041185 C2.69531987,126.637836 3.67593335,126.717891 4.24202232,126.214965 L20.9973636,112.993162 L37.7527043,126.214965 C38.3187933,126.717891 39.3200797,126.65343 39.7656623,126.041185 C40.1566314,125.503976 40.0604543,124.47602 39.4615463,124.028227 L21.8517846,110.125783 C21.5622013,109.922288 21.2819975,109.831056 20.9973636,109.836149 L20.9973636,109.836149 Z M9.87540875,123.405513 L7.09492004,125.606733 L7.09492004,139.031276 C7.09499681,139.799055 7.71738544,140.421443 8.48516439,140.42152 L17.2900453,140.42152 C18.0578242,140.421443 18.6802129,139.799055 18.6802896,139.031276 L18.6802896,131.153224 L23.3144375,131.153224 L23.3144375,139.031276 C23.3145142,139.799055 23.9369029,140.421443 24.7046818,140.42152 L33.5095627,140.42152 C34.2773417,140.421443 34.8997303,139.799055 34.8998071,139.031276 L34.8998071,125.606733 L32.1193184,123.405513 L32.1193184,137.641031 L26.0949262,137.641031 L26.0949262,129.76298 C26.0948494,128.995201 25.4724608,128.372812 24.7046818,128.372736 L17.2900453,128.372736 C16.5222663,128.372812 15.8998777,128.995201 15.8998009,129.76298 L15.8998009,137.641031 L9.87540875,137.641031 L9.87540875,123.405513 L9.87540875,123.405513 Z" id="Shape"></path>
            </g>
        </g>
    </g>
</svg>