<?xml version="1.0" encoding="UTF-8"?>
<svg width="49px" height="37px" viewBox="0 0 49 37" version="1.1" xmlns="http://www.w3.org/2000/svg" xmlns:xlink="http://www.w3.org/1999/xlink">
    <!-- Generator: Sketch 42 (36781) - http://www.bohemiancoding.com/sketch -->
    <title>Shape</title>
    <desc>Created with Sketch.</desc>
    <defs></defs>
    <g id="Page-1" stroke="none" stroke-width="1" fill="none" fill-rule="evenodd">
        <g id="Savoir-faire---Desktop" transform="translate(-132.000000, -1112.000000)" fill="#FFFFFF">
            <g id="Group-3" transform="translate(-372.000000, 1089.000000)">
                <g id="blocks" transform="translate(432.000000, 0.000000)">
                    <g id="Group-5">
                        <g id="brickwall" transform="translate(72.000000, 23.000000)">
                            <g id="Layer_1">
                                <path d="M18.5862069,0 C18.1196408,6.00900735e-05 17.741426,0.487244429 17.7413793,1.08823529 L17.7413793,8.70588235 L12.6724138,8.70588235 L0.844827586,8.70588235 C0.378261518,8.70594244 4.66496097e-05,9.19312678 0,9.79411765 L0,18.5 C4.66496097e-05,19.1009909 0.378261518,19.5881752 0.844827586,19.5882353 L5.9137931,19.5882353 L5.9137931,26.1176471 L0.844827586,26.1176471 C0.378261518,26.1177071 4.66496097e-05,26.6048915 0,27.2058824 L0,35.9117647 C4.66496097e-05,36.5127556 0.378261518,36.9999399 0.844827586,37 L12.6724138,37 L24.5,37 L36.3275862,37 L48.1551724,37 C48.6217385,36.9999399 48.9999534,36.5127556 49,35.9117647 L49,27.2058824 C48.9999534,26.6048915 48.6217385,26.1177071 48.1551724,26.1176471 L43.0862069,26.1176471 L43.0862069,19.5882353 L48.1551724,19.5882353 C48.6217385,19.5881752 48.9999534,19.1009909 49,18.5 L49,9.79411765 C48.9999534,9.19312678 48.6217385,8.70594244 48.1551724,8.70588235 L43.0862069,8.70588235 L43.0862069,1.08823529 C43.0861602,0.487244429 42.7079454,6.00900735e-05 42.2413793,0 L30.4137931,0 L18.5862069,0 Z M19.4310345,2.17647059 L29.5689655,2.17647059 L29.5689655,8.70588235 L24.5594015,8.70588235 L24.5,8.70588235 L19.4310345,8.70588235 L19.4310345,2.17647059 Z M31.2586207,2.17647059 L41.3965517,2.17647059 L41.3965517,8.70588235 L36.3869877,8.70588235 L36.3275862,8.70588235 L31.2586207,8.70588235 L31.2586207,2.17647059 Z M1.68965517,10.8823529 L11.8275862,10.8823529 L11.8275862,17.4117647 L1.68965517,17.4117647 L1.68965517,10.8823529 Z M13.5172414,10.8823529 L23.6551724,10.8823529 L23.6551724,17.4117647 L18.5862069,17.4117647 L13.5172414,17.4117647 L13.5172414,10.8823529 Z M25.3448276,10.8823529 L30.4137931,10.8823529 L35.4827586,10.8823529 L35.4827586,17.4117647 L30.4137931,17.4117647 L25.3448276,17.4117647 L25.3448276,10.8823529 Z M37.1724138,10.8823529 L42.2413793,10.8823529 L47.3103448,10.8823529 L47.3103448,17.4117647 L42.2413793,17.4117647 L37.1724138,17.4117647 L37.1724138,10.8823529 Z M7.60344828,19.5882353 L12.6724138,19.5882353 L17.7413793,19.5882353 L17.7413793,26.1176471 L12.7318156,26.1176471 L12.6724138,26.1176471 L7.60344828,26.1176471 L7.60344828,19.5882353 Z M19.4310345,19.5882353 L24.5,19.5882353 L29.5689655,19.5882353 L29.5689655,26.1176471 L24.5594015,26.1176471 L24.5,26.1176471 L19.4310345,26.1176471 L19.4310345,19.5882353 Z M31.2586207,19.5882353 L36.3275862,19.5882353 L41.3965517,19.5882353 L41.3965517,26.1176471 L36.3869877,26.1176471 L36.3275862,26.1176471 L31.2586207,26.1176471 L31.2586207,19.5882353 Z M1.68965517,28.2941176 L6.75862069,28.2941176 L11.8275862,28.2941176 L11.8275862,34.8235294 L1.68965517,34.8235294 L1.68965517,28.2941176 Z M13.5172414,28.2941176 L18.5862069,28.2941176 L23.6551724,28.2941176 L23.6551724,34.8235294 L13.5172414,34.8235294 L13.5172414,28.2941176 Z M25.3448276,28.2941176 L30.4137931,28.2941176 L35.4827586,28.2941176 L35.4827586,34.8235294 L25.3448276,34.8235294 L25.3448276,28.2941176 Z M37.1724138,28.2941176 L42.2413793,28.2941176 L47.3103448,28.2941176 L47.3103448,34.8235294 L37.1724138,34.8235294 L37.1724138,28.2941176 Z" id="Shape"></path>
                            </g>
                        </g>
                    </g>
                </g>
            </g>
        </g>
    </g>
</svg>