<?xml version="1.0" encoding="UTF-8"?>
<svg width="12px" height="17px" viewBox="0 0 12 17" version="1.1" xmlns="http://www.w3.org/2000/svg" xmlns:xlink="http://www.w3.org/1999/xlink">
    <!-- Generator: Sketch 42 (36781) - http://www.bohemiancoding.com/sketch -->
    <title>Shape</title>
    <desc>Created with Sketch.</desc>
    <defs></defs>
    <g id="Symbols" stroke="none" stroke-width="1" fill="none" fill-rule="evenodd">
        <g id="Devis" transform="translate(-25.000000, -15.000000)" fill="#FFFFFF">
            <g id="Group-7">
                <path d="M34.2381254,15.1104625 L27.5636838,15.1104625 C26.1962786,15.1104625 25.0875592,16.2191783 25.0875592,17.5865871 L25.0875592,29.2532066 C25.0875592,30.6206189 26.1962786,31.7293312 27.5636838,31.7293312 L34.2381254,31.7293312 C35.6055306,31.7293312 36.71425,30.6206189 36.71425,29.2532066 L36.71425,17.5865871 C36.71425,16.2191783 35.6055306,15.1104625 34.2381254,15.1104625 Z M28.9325877,29.4039894 L26.9871454,29.4039894 L26.9871454,27.4585757 L28.9325877,27.4585757 L28.9325877,29.4039894 Z M28.9325877,26.700215 L26.9871454,26.700215 L26.9871454,24.7547869 L28.9325877,24.7547869 L28.9325877,26.700215 Z M28.9325877,23.9964227 L26.9871454,23.9964227 L26.9871454,22.0510089 L28.9325877,22.0510089 L28.9325877,23.9964227 Z M31.8743395,29.4039894 L29.9304316,29.4039894 L29.9304316,27.4585757 L31.8743395,27.4585757 L31.8743395,29.4039894 Z M31.8743395,26.700215 L29.9304316,26.700215 L29.9304316,24.7547869 L31.8743395,24.7547869 L31.8743395,26.700215 Z M31.8743395,23.9964227 L29.9304316,23.9964227 L29.9304316,22.0510089 L31.8743395,22.0510089 L31.8743395,23.9964227 Z M34.8146995,29.4039894 L32.8692215,29.4039894 L32.8692215,27.4585757 L34.8146995,27.4585757 L34.8146995,29.4039894 Z M34.8146995,26.700215 L32.8692215,26.700215 L32.8692215,24.7547869 L34.8146995,24.7547869 L34.8146995,26.700215 Z M34.8146995,23.9964227 L32.8692215,23.9964227 L32.8692215,22.0510089 L34.8146995,22.0510089 L34.8146995,23.9964227 Z M34.8146995,20.2430672 C34.8146995,20.4677623 34.631382,20.6510727 34.4066691,20.6510727 L27.3951758,20.6510727 C27.1704629,20.6510727 26.9871454,20.4677623 26.9871454,20.2430672 L26.9871454,17.7950309 C26.9871454,17.5703215 27.1704629,17.3884992 27.3951758,17.3884992 L34.4066691,17.3884992 C34.631382,17.3884992 34.8146995,17.5703215 34.8146995,17.7950309 L34.8146995,20.2430672 Z" id="Shape"></path>
            </g>
        </g>
    </g>
</svg>