<?xml version="1.0" encoding="UTF-8"?>
<svg width="36px" height="36px" viewBox="0 0 36 36" version="1.1" xmlns="http://www.w3.org/2000/svg" xmlns:xlink="http://www.w3.org/1999/xlink">
    <!-- Generator: Sketch 42 (36781) - http://www.bohemiancoding.com/sketch -->
    <title>Page 1</title>
    <desc>Created with Sketch.</desc>
    <defs></defs>
    <g id="Page-1" stroke="none" stroke-width="1" fill="none" fill-rule="evenodd">
        <g id="Desktop-HD" transform="translate(-1073.000000, -1108.000000)" fill="#FFCB0D">
            <g id="chiffres" transform="translate(739.000000, 1005.000000)">
                <path d="M354.349974,103 L353.882938,103.296852 C353.882938,103.296852 353.663207,103.381729 353.391343,103.466605 C353.119049,103.551482 352.86485,103.466605 352.86485,103.466605 L352.48269,103.679012 L352.186269,103.679012 L351.804109,104.060741 L351.634356,104.357594 L351.634356,105.163274 L351.29485,107.326549 L351.082874,107.665624 L350.658922,108.047353 L350.065217,108.047353 L349.428428,108.513959 L348.496079,108.769019 L347.901081,109.19254 L347.562437,109.532046 L347.562437,109.998221 L347.901081,110.295073 L347.562437,110.591495 L347.096262,110.846124 C347.096262,110.846124 346.671879,110.803471 346.502557,110.846124 C346.332804,110.889209 346.205705,110.889209 346.035521,110.846124 C345.865768,110.803471 344.932988,110.549272 344.932988,110.549272 L344.339283,110.464395 L344.04243,110.878007 L343.873108,110.295073 C343.873108,110.295073 344.04243,110.040874 343.873108,109.913344 C343.703355,109.785814 343.873108,109.361862 343.873108,109.361862 C343.873108,109.361862 343.787801,109.149886 343.618909,109.192109 L343.448295,109.234763 L343.024343,109.277417 L342.558168,109.32007 L342.260885,109.19254 L341.921379,108.93791 C341.921379,108.93791 341.964894,109.277417 341.921379,109.361862 C341.880018,109.446739 342.260885,109.828468 342.260885,109.828468 L342.133355,110.124889 C342.133355,110.124889 342.260885,110.336865 342.388415,110.421742 C342.515514,110.506618 342.558599,110.676371 342.558599,110.676371 C342.558599,110.676371 342.431069,110.931001 342.473292,111.0581 C342.515945,111.1852 342.643475,111.525137 342.643475,111.525137 C342.643475,111.525137 342.728352,112.075326 342.771006,112.24551 C342.813229,112.415694 342.813229,112.924091 342.813229,112.924091 L343.025204,113.30582 C343.025204,113.30582 343.23718,113.390697 343.23718,113.517796 C343.23718,113.644896 343.066996,113.517796 343.066996,113.517796 L342.812798,113.574668 L342.388846,113.81508 L342.04934,113.81508 L341.919224,113.476004 L341.583165,113.391128 L341.583165,113.81508 L341.414274,113.81508 L341.031252,113.560019 L340.735692,113.390697 L340.226002,113.814649 L340.056249,113.984833 L339.886927,113.984833 L339.505198,113.984833 L339.29236,113.687119 C339.29236,113.687119 339.122607,113.348474 339.080815,113.221375 L339.038162,113.093844 L338.698656,112.839215 C338.698656,112.839215 338.48668,112.796561 338.360011,112.796561 C338.232481,112.796561 337.93649,112.839215 337.807667,112.839215 L337.511246,112.839215 L337.511246,113.221375 L337.257047,113.391128 L336.960626,113.391128 L336.578897,113.391128 L336.323405,113.476004 C336.026984,113.518227 335.815008,113.476004 335.815008,113.476004 L335.305749,113.518227 L334.66939,113.603104 C334.66939,113.603104 334.499637,113.899525 334.372107,113.985263 C334.245438,114.069278 334.075254,113.985263 334.075254,113.985263 L334.075254,114.451438 C334.075254,114.451438 333.905932,114.578538 334.075254,114.663414 C334.245869,114.748291 334.033462,114.748291 334.245869,114.748291 L335.220872,114.748291 C335.220872,114.748291 335.263957,114.917613 335.137288,115.002489 C335.009758,115.087366 334.754697,115.002489 334.754697,115.002489 L334.712044,115.341995 L334.882228,115.341995 L335.178649,115.553971 C335.178649,115.553971 335.306179,115.850393 335.178649,115.893477 C335.05155,115.9357 334.584514,115.893477 334.584514,115.893477 L334.245869,115.912004 C334.245869,115.912004 334.202785,116.275206 334.584514,116.402306 C334.966673,116.529836 334.924881,115.977923 335.136857,116.402306 C335.347971,116.826258 335.009327,116.996442 335.009327,116.996442 L335.559947,116.996442 C335.559947,116.996442 335.475502,116.86848 335.687478,116.996442 C335.899453,117.123541 336.407851,116.996442 336.407851,116.996442 C336.407851,116.996442 336.365628,116.81204 336.578466,117.052882 C336.790442,117.292863 336.662481,117.25064 337.172171,117.335086 C337.68143,117.419963 337.468592,117.419963 337.68143,117.419963 C337.893406,117.419963 338.316927,117.504839 338.528903,117.759038 C338.740878,118.013667 338.613779,118.056321 338.952424,118.056321 C339.29193,118.056321 339.631436,117.844345 339.80162,118.056321 C339.971373,118.267866 339.758104,118.479842 340.098041,118.734041 C340.437978,118.98824 340.776192,119.328176 340.904584,119.371261 C341.030391,119.413484 340.776192,119.159285 341.030391,119.413484 C341.286744,119.667683 341.328536,119.961088 341.371189,120.132134 C341.413412,120.30361 341.328536,120.728855 341.328536,120.982192 C341.328536,121.237252 341.921379,122.170463 342.048909,122.25534 C342.176439,122.339355 342.939897,122.975713 343.279403,123.018367 C343.618909,123.06059 343.533602,123.103243 343.787801,123.357442 C344.04243,123.611641 344.222093,123.73874 344.1747,123.909355 C344.127738,124.078677 343.999777,124.883927 343.999777,124.883927 L343.703355,124.121331 L343.406933,124.205346 L343.320764,124.545283 L343.320764,124.883496 C343.320764,125.05368 343.36428,125.434547 343.36428,125.434547 C343.36428,125.434547 343.320764,125.265225 343.407364,125.604731 C343.49181,125.944668 343.449156,126.113991 343.534033,126.241952 C343.61934,126.369051 343.704217,126.157075 343.704217,127.00584 C343.704217,127.853313 343.704217,127.93819 343.660701,128.277265 C343.61934,128.61634 343.61934,132.009247 343.61934,132.009247 C343.61934,132.009247 343.703786,131.754187 343.534033,132.305669 C343.36428,132.857582 343.23718,133.154003 343.23718,133.154003 C343.23718,133.154003 343.364711,133.154003 343.10965,133.450856 C342.855021,133.747708 342.68656,134.427151 342.68656,134.427151 L342.389277,134.427151 L342.855451,135.147525 C342.855451,135.147525 342.898967,135.190609 343.025635,135.147525 L343.153166,135.105302 C343.153166,135.105302 343.408226,135.655491 343.534894,135.699438 C343.661563,135.74166 343.620202,135.867898 343.957985,135.867898 C344.298352,135.867898 344.043292,135.571476 344.298352,135.867898 C344.553413,136.165612 344.425021,136.335796 344.764527,136.419811 C345.103172,136.504687 345.570208,136.419811 345.570208,136.419811 C345.570208,136.419811 345.400455,136.717525 345.697738,136.801971 C345.99416,136.887709 345.825268,136.717956 346.207428,136.801971 C346.588295,136.887709 346.376319,136.887709 346.588295,136.887709 C346.800271,136.887709 346.884717,136.929932 347.05447,136.887709 C347.225085,136.843763 347.30953,136.712786 347.563729,136.905374 C347.818359,137.098823 347.436199,137.056169 347.818359,137.098823 C348.200949,137.141908 348.327618,136.971724 348.497371,137.098823 C348.667124,137.225061 348.836015,137.197487 348.964407,137.106578 C349.091076,137.013085 348.921754,136.972155 349.176383,136.801971 C349.42972,136.631787 349.683919,136.589995 349.683919,136.589995 C349.683919,136.589995 350.193178,136.887709 350.448239,136.887709 C350.702437,136.887709 351.337073,136.971724 351.337073,136.971724 C351.337073,136.971724 351.337073,136.846348 351.507687,137.184561 C351.676579,137.522775 351.337073,137.522775 351.676579,137.522775 C352.016947,137.522775 352.144477,137.649874 352.271145,137.733889 C352.399106,137.819627 353.391774,138.24401 353.391774,138.24401 L354.350405,138.24401 L354.817441,138.24401 C355.070778,138.24401 355.324977,138.200926 355.452507,138.24401 C355.580899,138.286233 356.046212,138.24401 356.046212,138.24401 C356.046212,138.24401 355.664483,137.649874 355.664483,137.480121 C355.664483,137.310799 355.324977,135.783452 356.80967,134.766227 C357.487821,134.596043 357.99708,134.129868 357.99708,134.129868 C357.99708,134.129868 357.912203,133.833016 358.336586,133.874808 C358.760538,133.917892 359.778625,133.959684 359.778625,134.088507 C359.778625,134.214744 359.312451,134.808019 359.778625,134.808019 C360.2448,134.808019 360.542083,134.42672 360.542083,134.42672 L362.364128,134.765796 C362.364128,134.765796 362.110791,134.935118 362.364128,134.97691 C362.619619,135.019994 363.510177,135.528823 363.510177,135.528823 L364.060797,135.699007 C364.060797,135.699007 364.060797,135.953205 364.485611,135.783022 C364.910424,135.613699 364.697586,135.613699 365.079315,135.528823 L365.461475,135.443085 L366.011665,135.189747 L366.011665,135.062648 L365.842773,134.807588 L366.224502,134.595612 L366.478701,134.383636 L367.072837,133.874377 L367.24259,133.535301 L367.92074,133.409064 L368.769506,133.409064 L368.175801,132.60209 L368.55753,132.263015 L368.769506,131.92394 L368.769506,131.54178 L368.175801,131.585726 L367.750987,131.627087 L367.454566,131.627087 L367.072837,131.456903 L366.733331,131.329804 L366.564008,131.074744 L366.266725,130.821407 L366.310241,130.524554 L366.310241,130.312578 L366.606662,129.929557 L366.691108,129.632704 C366.691108,129.632704 366.733762,129.379367 366.776415,129.251406 C366.818638,129.125169 366.776415,128.954985 366.776415,128.954985 L366.012096,128.827885 L365.969873,128.446587 L365.332652,128.149735 C365.332652,128.149735 365.332652,127.767575 365.588144,127.682698 L365.843204,127.597822 L366.606231,127.682698 L367.24259,127.04634 L367.200367,126.792141 L366.945737,126.621957 L366.775984,126.451773 L366.7329,126.027821 L366.35074,125.858499 L365.969011,125.307448 L366.6058,124.925288 L366.690246,124.755966 L366.690246,124.459114 L366.690246,124.28893 L366.47827,124.204053 L366.309379,123.907632 L366.181849,123.737017 L366.181849,123.186827 L366.181849,122.932629 L365.460614,122.804667 L364.994008,122.804667 L364.824255,123.186827 L364.654071,123.525903 L364.484318,123.695225 L364.314565,123.525903 L364.314565,123.186827 L364.314565,123.018367 C364.230119,122.764168 364.186604,122.764168 364.186604,122.55133 C364.186604,122.339355 364.314565,122.000279 364.314565,122.000279 C364.314565,122.000279 364.230119,121.915403 364.484318,121.789165 C364.739378,121.661204 365.078023,121.406144 365.078023,121.406144 L365.0358,120.939969 L365.246914,120.631914 L365.671297,120.132134 L365.925927,120.132134 L366.09568,119.710336 L366.477409,119.413484 L366.648885,119.159285 L366.478701,118.98867 L366.224502,118.777556 L366.648885,118.268297 C366.648885,118.268297 367.11506,118.268297 367.157282,118.395396 C367.200798,118.522927 367.368397,118.650457 367.496789,118.650457 C367.624319,118.650457 368.005617,118.522927 368.005617,118.522927 L368.218455,118.395396 L368.43,118.056752 L368.345985,117.886137 L368.049563,117.589285 L368.176232,116.826258 L368.218885,115.977492 L368.769937,115.002058 L368.769937,114.153724 L369.152096,113.559588 L369.152096,113.432489 L369.659632,113.008537 L369.659632,112.838784 L370,112.415263 L370,112.245079 L369.533825,112.202856 L369.490741,111.778905 L369.024566,111.778905 L368.685922,111.906004 L368.388638,111.821127 L367.964687,111.482052 L367.625181,111.525137 L367.200367,111.609582 L366.690677,111.609582 C366.690677,111.609582 366.818207,111.313161 366.690677,111.313161 C366.564008,111.313161 366.266725,111.185631 366.266725,111.185631 L366.224502,111.482483 L366.054749,111.482483 L365.884565,111.100754 C365.884565,111.100754 365.502836,110.846124 365.461044,110.676802 L365.418391,110.507049 C365.418391,110.507049 365.121969,109.913344 364.994439,109.955567 C364.866909,109.998221 364.273204,109.955567 364.273204,109.955567 L363.976351,110.083097 C363.976351,110.083097 363.84839,110.040874 363.721722,110.083097 C363.594192,110.12532 363.298201,110.040874 363.298201,110.040874 C363.298201,110.040874 362.832026,109.955567 362.704065,109.99779 C362.576535,110.040874 362.153014,109.743591 362.153014,109.743591 L361.644186,109.404516 L361.304679,108.93748 C361.304679,108.93748 361.219372,108.853034 361.050481,108.853034 C360.880728,108.853034 361.008258,109.234763 360.880728,108.853034 L360.752767,108.470874 C360.752767,108.470874 360.668752,108.343775 360.709682,108.131799 C360.752767,107.919823 360.668321,107.750501 360.709682,107.580317 L360.752767,107.410564 C360.752767,107.410564 360.709682,106.986612 360.625236,107.113711 L360.541222,107.240811 L360.201715,107.834085 C360.201715,107.834085 360.243938,107.919392 359.990601,107.961615 C359.735541,108.004269 359.777764,108.004269 359.565788,108.004269 L359.35295,108.004269 L358.929429,108.004269 L358.929429,107.792293 L358.929429,107.664762 L358.929429,107.452787 C358.929429,107.452787 358.590785,107.071058 358.760107,106.943958 C358.929429,106.816859 359.099613,106.604452 359.099613,106.604452 L358.632577,106.519576 C358.632577,106.519576 358.420601,106.434699 358.293932,106.434699 C358.166402,106.434699 357.826896,106.392476 357.826896,106.392476 L357.61492,106.477784 L357.446029,106.011178 L357.275414,105.841425 L356.851462,105.629449 L356.512387,105.629449 C356.512387,105.629449 356.300411,105.586795 356.216396,105.459696 C356.130227,105.332597 356.088866,105.374819 356.00442,105.162844 L355.918251,104.950868 C355.918251,104.950868 355.87689,104.654446 355.706275,104.654446 C355.537384,104.654446 355.156086,104.696669 355.156086,104.696669 L355.028125,104.485124 C355.028125,104.485124 354.858372,104.272717 354.689049,104.272717 C354.518865,104.272717 354.518865,104.527347 354.518865,104.272717 C354.518865,104.018518 354.43442,103.806112 354.43442,103.806112 L354.43442,103.594136" id="Page-1"></path>
            </g>
        </g>
    </g>
</svg>