<?xml version="1.0" encoding="UTF-8"?>
<svg width="10px" height="7px" viewBox="0 0 10 7" version="1.1" xmlns="http://www.w3.org/2000/svg" xmlns:xlink="http://www.w3.org/1999/xlink">
    <!-- Generator: Sketch 41 (35326) - http://www.bohemiancoding.com/sketch -->
    <title>Forma_1_copie_3</title>
    <desc>Created with Sketch.</desc>
    <defs></defs>
    <g id="Page-1" stroke="none" stroke-width="1" fill="none" fill-rule="evenodd">
        <g id="Toaster---Opened" transform="translate(-1345.000000, -850.000000)" fill="#FFFFFF">
            <g id="Group-3" transform="translate(1141.000000, 693.000000)">
                <g id="Group-4" transform="translate(16.000000, 147.000000)">
                    <path d="M195.785298,14.2566877 L191.264626,18.3718109 C190.963977,18.6343113 190.515621,18.6343113 190.214972,18.3718109 C190.078275,18.2509112 190,18.0771858 190,17.8946952 C190,17.7122045 190.078275,17.5384791 190.214972,17.4175794 L194.222744,13.7831503 L190.214972,10.1439501 C190.078592,10.0243685 190.000391,9.85179367 190.000391,9.67041269 C190.000391,9.48903172 190.078592,9.31645692 190.214972,9.19687533 C190.515621,8.93437489 190.963977,8.93437489 191.264626,9.19687533 L195.785298,13.309613 C195.921392,13.4309314 195.999458,13.6044118 196,13.7867287 C195.998486,13.9667783 195.920412,14.137674 195.785298,14.2566877 L195.785298,14.2566877 Z" id="Forma_1_copie_3" transform="translate(193.000000, 13.784343) rotate(-90.000000) translate(-193.000000, -13.784343) "></path>
                </g>
            </g>
        </g>
    </g>
</svg>