<?xml version="1.0" encoding="UTF-8"?>
<svg width="41px" height="34px" viewBox="0 0 41 34" version="1.1" xmlns="http://www.w3.org/2000/svg" xmlns:xlink="http://www.w3.org/1999/xlink">
    <!-- Generator: Sketch 41 (35326) - http://www.bohemiancoding.com/sketch -->
    <title>Shape</title>
    <desc>Created with Sketch.</desc>
    <defs></defs>
    <g id="Page-1" stroke="none" stroke-width="1" fill="none" fill-rule="evenodd">
        <g id="Expertise" transform="translate(-812.000000, -1115.000000)" fill="#C8C8C8">
            <g id="Group-3" transform="translate(-372.000000, 1089.000000)">
                <g id="blocks" transform="translate(432.000000, 0.000000)">
                    <g id="Group-7" transform="translate(675.800000, 0.000000)">
                        <g id="brickwall-copy-3" transform="translate(76.000000, 26.000000)">
                            <path d="M40.6524958,9.91112879 L21.1167623,0.117214401 C20.8562859,-0.039071467 20.5437141,-0.039071467 20.2311424,0.117214401 L0.747504195,9.91112879 C0.33074188,10.1195099 0.122360723,10.5883676 0.226551301,11.0051299 C0.33074188,11.4218922 0.747504195,11.7344639 1.16426651,11.7344639 L19.7101895,11.7344639 L19.7101895,25.070858 L5.69655668,25.070858 C5.17560379,25.070858 4.70674618,25.4876203 4.70674618,26.0606685 C4.70674618,26.5816214 5.1235085,27.050479 5.69655668,27.050479 L9.60370338,27.050479 L9.60370338,32.5725796 C9.60370338,33.0935325 10.0204657,33.5623901 10.5935139,33.5623901 C11.1665621,33.5623901 11.5833244,33.1456278 11.5833244,32.5725796 L11.5833244,27.050479 L29.8166756,27.050479 L29.8166756,32.5725796 C29.8166756,33.0935325 30.2334379,33.5623901 30.8064861,33.5623901 C31.327439,33.5623901 31.7962966,33.1456278 31.7962966,32.5725796 L31.7962966,27.050479 L35.7034433,27.050479 C36.2243962,27.050479 36.6932538,26.6337167 36.6932538,26.0606685 C36.6932538,25.5397156 36.2764915,25.070858 35.7034433,25.070858 L21.6898105,25.070858 L21.6898105,11.7344639 L40.2357335,11.7344639 C40.7045911,11.7344639 41.0692581,11.4218922 41.1734487,11.0051299 C41.2776393,10.5362723 41.0692581,10.1195099 40.6524958,9.91112879 Z M5.33188965,9.80693821 L20.7,2.09683539 L36.0681103,9.80693821 L5.33188965,9.80693821 Z" id="Shape"></path>
                        </g>
                    </g>
                </g>
            </g>
        </g>
    </g>
</svg>